<svg width="646" height="891.7" xmlns="http://www.w3.org/2000/svg" xmlns:xlink="http://www.w3.org/1999/xlink"><defs><symbol viewBox="0 0 12 12" id="arrow-external">
	<path fill="currentColor" d="M0 0v1.7h9.1L.2 10.6l1.2 1.2 8.9-8.9V12H12V0z" />
</symbol><symbol viewBox="0 0 13 13" fill="currentColor" id="arrow-external-thick"><path d="M0 0v2.7h8.4L0 11.1 1.9 13l8.4-8.4V13H13V0z" /></symbol><symbol fill="currentColor" viewBox="0 0 19 19" id="arrow-external-thin">
	<path d="M0-.2v1.4h16.7L.1 17.8l1.1 1.1L17.8 2.3V19h1.4V-.2z" />
</symbol><symbol fill="currentColor" viewBox="0 0 10 10" id="arrow-left"><path d="m.6 4.603 3.5-4.6h1.4l-1.6 2.1-1.4 1.8H10v1.3H2.4l1.5 1.9 1.6 2.1H4.1l-3.5-4.6Z" /></symbol><symbol fill="currentColor" viewBox="0 0 10 10" id="arrow-right"><path d="M9.4 4.6 5.9 9.2H4.5l1.6-2.1 1.4-1.8H0V4h7.6L6.1 2.1 4.5 0h1.4l3.5 4.6Z" /></symbol><symbol fill="currentColor" viewBox="0 0 25 28" id="checkmark"><path fill-rule="evenodd" clip-rule="evenodd" d="M24.829 1.56 7.116 27.787.17 17.505l1.658-1.12 5.287 7.828L23.17.44l1.658 1.12Z" /></symbol><symbol viewBox="0 0 43.7 43.7" id="cross">
	<path fill="currentColor" d="m43.7 1.1-1-1.1-20.8 20.8L1.1 0 0 1.1l20.8 20.8L0 42.7l1.1 1 20.8-20.8 20.8 20.8 1-1-20.8-20.8z" />
</symbol><symbol fill="currentColor" viewBox="0 0 8 12" id="downwards-arrow"><path d="m4.563 12-.97-1.048 1.173-1.267.734-.677-.016-.05-1.39.084H0V0h1.422v7.504h2.672l1.39.085.016-.051-.734-.693-1.172-1.268.969-1.03L8 8.264 4.562 12Z" /></symbol><symbol fill="currentColor" viewBox="0 0 11 15" id="icon-pause">
	<path fill-rule="evenodd" clip-rule="evenodd" d="M0 15V0h3v15H0ZM8 15V0h3v15H8Z" />
</symbol><symbol fill="currentColor" viewBox="0 0 12 15" id="icon-play">
	<path d="M12 7.5 0 0v15l12-7.5Z" />
</symbol><symbol viewBox="0 0 11 11" fill="currentColor" id="linkedin">
	<path d="M8.7 0H2.3C1 0 0 1 0 2.3v6.4C0 10 1 11 2.3 11h6.4C10 11 11 10 11 8.7V2.3C11 1 10 0 8.7 0zm-5 8.7H2.3v-5h1.4v5zM3 3.1c-.5 0-.8-.4-.8-.8 0-.5.4-.8.8-.8.5 0 .8.4.8.9 0 .4-.4.7-.8.7zm6.2 5.6H7.8V6.1c0-1.6-1.8-1.4-1.8 0v2.6H4.6v-5H6v.8c.6-1.2 3.2-1.3 3.2 1.1v3.1z" />
</symbol><symbol viewBox="0 0 646 181" fill="currentColor" id="logo-footer">
	<path d="M110.6 4.1H24.4C10.9 4.1 0 15.1 0 28.8v100h29.2V93.5h81.4c21.1 0 39.4-15 43.5-35.9 5.3-28.5-16.2-53.5-43.5-53.5zm14.3 49.5c-1.9 6.2-7.7 10.3-14.1 10.3H29.2V33.6h81.5c9.7 0 17.4 9.6 14.2 20zM524.3 31.9h74.2V3.7h-74.2c-34.1 0-61.7 28-61.7 62.4s27.7 62.4 61.7 62.4h74.2v-28.2h-74.2c-13.9 0-25.9-8.6-31.1-20.8h91.5V52.3h-91.3c5.2-11.9 17.1-20.4 30.9-20.4zM406.6 115.5l.1-.2L461.9 4.6s0-.1-.1-.1h-32.7l-47.4 95.2c-.9 1.7-2.5 2.8-4.3 2.8h-.4c-1.8-.1-3.5-1.2-4.3-2.8L325.3 4.6h-32.7c-.1 0-.1.1-.1.1l54.9 110.1.3.6.4.6c6 9.6 16.1 15.6 27.3 16.2 12.6.6 24.5-5.9 31.2-16.7zM282.7 128.6h32.7L260 17.5l-.7-1.2C253 6.1 242.1 0 230.2 0c-11.9 0-22.8 6.1-29.1 16.2-.2.4-.5.8-.7 1.2L145 128.6h32.7l48-96.2c.9-1.7 2.5-2.8 4.3-2.8h.4c1.8.1 3.5 1.2 4.3 2.8l48 96.2zM531.6 153.4H355.8v27h175.8v-27zM619.3 114.5c0 7.6 6 13.5 13.3 13.5 7.4 0 13.4-5.9 13.4-13.5s-6-13.5-13.4-13.5c-7.3 0-13.3 5.9-13.3 13.5zm23.3 0c0 5.9-4.4 10.4-10 10.4s-9.9-4.5-9.9-10.3c0-5.9 4.3-10.5 9.9-10.5 5.7 0 10 4.5 10 10.4zm-15 7.1h3.4v-4.5h1.6l2.4 4.5h3.8l-2.8-5.3c1.6-.8 2.6-2.3 2.6-4.1 0-2.9-2.1-4.8-5.5-4.8h-5.5v14.2zm5.3-11.4c1.3 0 2.1.7 2.1 1.9s-.9 1.9-2.1 1.9H631v-3.9l1.9.1z" />
</symbol><symbol viewBox="0 0 598.5 181" fill="currentColor" id="logo-full">
	<path d="M110.6 4.1H24.4C10.9 4.1 0 15.1 0 28.8v100h29.2V93.5h81.4c21.1 0 39.4-15 43.5-35.9 5.3-28.5-16.2-53.5-43.5-53.5zm14.3 49.5c-1.9 6.2-7.7 10.3-14.1 10.3H29.2V33.6h81.5c9.7 0 17.4 9.6 14.2 20zM524.3 31.9h74.2V3.7h-74.2c-34.1 0-61.7 28-61.7 62.4s27.7 62.4 61.7 62.4h74.2v-28.2h-74.2c-13.9 0-25.9-8.6-31.1-20.8h91.5V52.3h-91.3c5.2-11.9 17.1-20.4 30.9-20.4zM406.6 115.5l.1-.2L461.9 4.6s0-.1-.1-.1h-32.7l-47.4 95.2c-.9 1.7-2.5 2.8-4.3 2.8h-.4c-1.8-.1-3.5-1.2-4.3-2.8L325.3 4.6h-32.7c-.1 0-.1.1-.1.1l54.9 110.1.3.6.4.6c6 9.6 16.1 15.6 27.3 16.2 12.6.6 24.5-5.9 31.2-16.7zM282.7 128.6h32.7L260 17.5l-.7-1.2C253 6.1 242.1 0 230.2 0c-11.9 0-22.8 6.1-29.1 16.2-.2.4-.5.8-.7 1.2L145 128.6h32.7l48-96.2c.9-1.7 2.5-2.8 4.3-2.8h.4c1.8.1 3.5 1.2 4.3 2.8l48 96.2zM531.6 153.4H355.8v27h175.8v-27z" />
</symbol><symbol viewBox="0 0 598.5 181" fill="currentColor" id="logo-type">
	<path d="M110.6 4.1H24.4C10.9 4.1 0 15.1 0 28.8v100h29.2V93.5h81.4c21.1 0 39.4-15 43.5-35.9 5.3-28.5-16.2-53.5-43.5-53.5zm14.3 49.5c-1.9 6.2-7.7 10.3-14.1 10.3H29.2V33.6h81.5c9.7 0 17.4 9.6 14.2 20zM524.3 31.9h74.2V3.7h-74.2c-34.1 0-61.7 28-61.7 62.4s27.7 62.4 61.7 62.4h74.2v-28.2h-74.2c-13.9 0-25.9-8.6-31.1-20.8h91.5V52.3h-91.3c5.2-11.9 17.1-20.4 30.9-20.4zM406.6 115.5l.1-.2L461.9 4.6s0-.1-.1-.1h-32.7l-47.4 95.2c-.9 1.7-2.5 2.8-4.3 2.8h-.4c-1.8-.1-3.5-1.2-4.3-2.8L325.3 4.6h-32.7c-.1 0-.1.1-.1.1l54.9 110.1.3.6.4.6c6 9.6 16.1 15.6 27.3 16.2 12.6.6 24.5-5.9 31.2-16.7zM282.7 128.6h32.7L260 17.5l-.7-1.2C253 6.1 242.1 0 230.2 0c-11.9 0-22.8 6.1-29.1 16.2-.2.4-.5.8-.7 1.2L145 128.6h32.7l48-96.2c.9-1.7 2.5-2.8 4.3-2.8h.4c1.8.1 3.5 1.2 4.3 2.8l48 96.2z" />
</symbol><symbol fill="currentColor" viewBox="0 0 12 10" id="twitter">
	<path d="M12 1.18c-.45.205-.9.358-1.4.41.5-.308.9-.82 1.1-1.385-.5.308-1 .513-1.55.616C9.65.308 9 0 8.3 0 6.7 0 5.55 1.538 5.9 3.077A6.783 6.783 0 0 1 .85.462a2.578 2.578 0 0 0 .75 3.384c-.4-.051-.8-.154-1.1-.308-.05 1.18.8 2.257 1.95 2.513-.35.103-.75.103-1.1.052.3 1.025 1.2 1.743 2.3 1.743A4.953 4.953 0 0 1 0 8.872C1.1 9.59 2.4 10 3.75 10c4.55 0 7.15-3.949 7-7.487.5-.36.9-.82 1.25-1.334Z" />
</symbol></defs></svg>